<svg width="512" height="512" xmlns="http://www.w3.org/2000/svg">

 <g>
  <title>background</title>
  <rect fill="none" id="canvas_background" height="402" width="582" y="-1" x="-1"/>
 </g>
 <g>
  <title>Layer 1</title>
  <path fill="#ffffff" id="svg_1" d="m256,0c-141.385,0 -256,114.615 -256,256s114.615,256 256,256s256,-114.615 256,-256s-114.615,-256 -256,-256zm0,51.188c47.562,0 90.812,16.906 125.562,44.125c-16.156,13.938 -50.875,40.375 -103.938,65.438c-19.562,-34.531 -42.594,-69.531 -70.125,-103.156c15.626,-3.814 31.72,-6.407 48.501,-6.407zm-87.062,20.093c15.5,21.062 41,58.375 67.906,106c-57.469,18.844 -123.875,19.469 -175.25,15.344c17.656,-53.625 56.781,-97.437 107.344,-121.344zm84.312,136c7.188,13.75 14.28,28.562 21.28,43.594c-107.312,23.531 -157.562,93.969 -177.655,132.594c-28.156,-35.062 -45.688,-79 -45.688,-127.469c0,-9.062 0.812,-17.906 1.969,-26.625c40.375,5.594 111.844,7.781 200.094,-22.094zm39.031,84.907c19.156,46.812 35.97,97.531 45.781,151.25c-25.156,11.031 -52.844,17.375 -82.062,17.375c-48.595,0 -92.625,-17.655 -127.75,-45.905c50.844,-70.689 109.781,-106.346 164.031,-122.72zm82.438,130.156c-2.594,-14.656 -13.781,-69.438 -40.281,-139.562c62.031,-9.188 111.25,2.938 123.312,6.438c-9.031,54.749 -39.688,102.124 -83.031,133.124zm-55.75,-177.813c-7.438,-17.281 -15.438,-34.938 -24.781,-53.125c37.062,-16.031 76.438,-37.938 117.219,-67.375c30.375,35.719 49.406,81.406 49.406,131.969c-54.625,-12.125 -101.375,-14.781 -141.844,-11.469z"/>
 </g>
</svg>